HIERARCHY
ROOT mixamorig:Hips
{
	OFFSET 0.000000 201.639420 0.000000
	CHANNELS 6 Xposition Yposition Zposition Xrotation Yrotation Zrotation
	JOINT mixamorig:Spine
	{
		OFFSET 0.006200 19.524994 -2.481800
		CHANNELS 3 Xrotation Yrotation Zrotation
		JOINT mixamorig:Spine1
		{
			OFFSET -0.000900 22.835007 -2.825400
			CHANNELS 3 Xrotation Yrotation Zrotation
			JOINT mixamorig:Spine2
			{
				OFFSET -0.020600 26.552490 -3.193300
				CHANNELS 3 Xrotation Yrotation Zrotation
				JOINT mixamorig:Neck
				{
					OFFSET -0.060000 30.701813 1.352200
					CHANNELS 3 Xrotation Yrotation Zrotation
					JOINT mixamorig:Head
					{
						OFFSET -0.087200 22.547607 3.670900
						CHANNELS 3 Xrotation Yrotation Zrotation
						JOINT mixamorig:HeadTop_End
						{
							OFFSET -0.830600 40.355194 7.893500
							CHANNELS 3 Xrotation Yrotation Zrotation
							End Site
							{
								OFFSET 0.000000 30.592346 0.000000
							}
						}
						JOINT mixamorig:RightEye
						{
							OFFSET -6.302100 18.118591 16.197100
							CHANNELS 3 Xrotation Yrotation Zrotation
							End Site
							{
								OFFSET 0.000000 30.592346 0.000000
							}
						}
						JOINT mixamorig:LeftEye
						{
							OFFSET 6.741500 18.382690 16.401899
							CHANNELS 3 Xrotation Yrotation Zrotation
							End Site
							{
								OFFSET 0.000000 30.592346 0.000000
							}
						}
					}
				}
				JOINT mixamorig:LeftShoulder
				{
					OFFSET 11.924900 18.230499 1.425400
					CHANNELS 3 Xrotation Yrotation Zrotation
					JOINT mixamorig:LeftArm
					{
						OFFSET 25.435989 -0.697632 -5.229300
						CHANNELS 3 Xrotation Yrotation Zrotation
						JOINT mixamorig:LeftForeArm
						{
							OFFSET 54.684776 0.000000 0.000000
							CHANNELS 3 Xrotation Yrotation Zrotation
							JOINT mixamorig:LeftHand
							{
								OFFSET 55.098175 0.000000 0.000000
								CHANNELS 3 Xrotation Yrotation Zrotation
								JOINT mixamorig:LeftHandMiddle1
								{
									OFFSET 23.369751 0.000000 0.000000
									CHANNELS 3 Xrotation Yrotation Zrotation
									JOINT mixamorig:LeftHandMiddle2
									{
										OFFSET 6.378677 0.000000 0.000000
										CHANNELS 3 Xrotation Yrotation Zrotation
										JOINT mixamorig:LeftHandMiddle3
										{
											OFFSET 6.148331 0.000000 0.000000
											CHANNELS 3 Xrotation Yrotation Zrotation
											JOINT mixamorig:LeftHandMiddle4
											{
												OFFSET 6.582504 0.000000 0.000000
												CHANNELS 3 Xrotation Yrotation Zrotation
												End Site
												{
													OFFSET -1.168900 6.395691 1.028606
												}
											}
										}
									}
								}
								JOINT mixamorig:LeftHandThumb1
								{
									OFFSET 7.235672 -3.848206 5.434273
									CHANNELS 3 Xrotation Yrotation Zrotation
									JOINT mixamorig:LeftHandThumb2
									{
										OFFSET 6.568451 -3.792297 3.792300
										CHANNELS 3 Xrotation Yrotation Zrotation
										JOINT mixamorig:LeftHandThumb3
										{
											OFFSET 6.063080 -3.500519 3.500518
											CHANNELS 3 Xrotation Yrotation Zrotation
											JOINT mixamorig:LeftHandThumb4
											{
												OFFSET 4.793182 -2.767334 2.767349
												CHANNELS 3 Xrotation Yrotation Zrotation
												End Site
												{
													OFFSET 0.101639 6.054260 1.275483
												}
											}
										}
									}
								}
								JOINT mixamorig:LeftHandIndex1
								{
									OFFSET 23.101074 -0.309540 4.992809
									CHANNELS 3 Xrotation Yrotation Zrotation
									JOINT mixamorig:LeftHandIndex2
									{
										OFFSET 6.226883 0.000000 0.000000
										CHANNELS 3 Xrotation Yrotation Zrotation
										JOINT mixamorig:LeftHandIndex3
										{
											OFFSET 6.094330 0.000000 0.000000
											CHANNELS 3 Xrotation Yrotation Zrotation
											JOINT mixamorig:LeftHandIndex4
											{
												OFFSET 5.482605 0.000000 0.000000
												CHANNELS 3 Xrotation Yrotation Zrotation
												End Site
												{
													OFFSET -1.427902 5.233032 0.797164
												}
											}
										}
									}
								}
								JOINT mixamorig:LeftHandRing1
								{
									OFFSET 22.299240 0.021149 -3.964172
									CHANNELS 3 Xrotation Yrotation Zrotation
									JOINT mixamorig:LeftHandRing2
									{
										OFFSET 6.321869 0.000000 0.000000
										CHANNELS 3 Xrotation Yrotation Zrotation
										JOINT mixamorig:LeftHandRing3
										{
											OFFSET 5.899796 0.000000 0.000000
											CHANNELS 3 Xrotation Yrotation Zrotation
											JOINT mixamorig:LeftHandRing4
											{
												OFFSET 6.517899 0.000000 0.000000
												CHANNELS 3 Xrotation Yrotation Zrotation
												End Site
												{
													OFFSET -1.637299 6.232208 0.980890
												}
											}
										}
									}
								}
								JOINT mixamorig:LeftHandPinky1
								{
									OFFSET 20.463791 -0.302338 -8.562233
									CHANNELS 3 Xrotation Yrotation Zrotation
									JOINT mixamorig:LeftHandPinky2
									{
										OFFSET 6.908646 0.000000 0.000000
										CHANNELS 3 Xrotation Yrotation Zrotation
										JOINT mixamorig:LeftHandPinky3
										{
											OFFSET 4.622849 0.000000 0.000000
											CHANNELS 3 Xrotation Yrotation Zrotation
											JOINT mixamorig:LeftHandPinky4
											{
												OFFSET 5.216080 0.000000 0.000000
												CHANNELS 3 Xrotation Yrotation Zrotation
												End Site
												{
													OFFSET -0.606308 5.116241 0.814926
												}
											}
										}
									}
								}
							}
						}
					}
				}
				JOINT mixamorig:RightShoulder
				{
					OFFSET -12.001300 18.284088 1.348900
					CHANNELS 3 Xrotation Yrotation Zrotation
					JOINT mixamorig:RightArm
					{
						OFFSET -25.308500 -0.751312 -5.164599
						CHANNELS 3 Xrotation Yrotation Zrotation
						JOINT mixamorig:RightForeArm
						{
							OFFSET -54.684429 0.000000 0.000000
							CHANNELS 3 Xrotation Yrotation Zrotation
							JOINT mixamorig:RightHand
							{
								OFFSET -55.150291 0.000000 0.000000
								CHANNELS 3 Xrotation Yrotation Zrotation
								JOINT mixamorig:RightHandMiddle1
								{
									OFFSET -23.317566 0.000000 0.000000
									CHANNELS 3 Xrotation Yrotation Zrotation
									JOINT mixamorig:RightHandMiddle2
									{
										OFFSET -6.378403 0.000000 0.000000
										CHANNELS 3 Xrotation Yrotation Zrotation
										JOINT mixamorig:RightHandMiddle3
										{
											OFFSET -6.148193 0.000000 0.000000
											CHANNELS 3 Xrotation Yrotation Zrotation
											JOINT mixamorig:RightHandMiddle4
											{
												OFFSET -6.583389 0.000000 0.000000
												CHANNELS 3 Xrotation Yrotation Zrotation
												End Site
												{
													OFFSET 1.171692 6.395905 1.029786
												}
											}
										}
									}
								}
								JOINT mixamorig:RightHandThumb1
								{
									OFFSET -7.190521 -3.860474 5.435846
									CHANNELS 3 Xrotation Yrotation Zrotation
									JOINT mixamorig:RightHandThumb2
									{
										OFFSET -6.567429 -3.791718 3.791708
										CHANNELS 3 Xrotation Yrotation Zrotation
										JOINT mixamorig:RightHandThumb3
										{
											OFFSET -6.062469 -3.500153 3.500166
											CHANNELS 3 Xrotation Yrotation Zrotation
											JOINT mixamorig:RightHandThumb4
											{
												OFFSET -4.792618 -2.767029 2.767022
												CHANNELS 3 Xrotation Yrotation Zrotation
												End Site
												{
													OFFSET -0.100327 6.053253 1.276754
												}
											}
										}
									}
								}
								JOINT mixamorig:RightHandIndex1
								{
									OFFSET -23.048981 -0.310791 4.992554
									CHANNELS 3 Xrotation Yrotation Zrotation
									JOINT mixamorig:RightHandIndex2
									{
										OFFSET -6.227539 0.000000 0.000000
										CHANNELS 3 Xrotation Yrotation Zrotation
										JOINT mixamorig:RightHandIndex3
										{
											OFFSET -6.095047 0.000000 0.000000
											CHANNELS 3 Xrotation Yrotation Zrotation
											JOINT mixamorig:RightHandIndex4
											{
												OFFSET -5.484772 0.000000 0.000000
												CHANNELS 3 Xrotation Yrotation Zrotation
												End Site
												{
													OFFSET 1.420593 5.237305 0.797056
												}
											}
										}
									}
								}
								JOINT mixamorig:RightHandRing1
								{
									OFFSET -22.246323 0.020569 -3.963762
									CHANNELS 3 Xrotation Yrotation Zrotation
									JOINT mixamorig:RightHandRing2
									{
										OFFSET -6.322128 0.000000 0.000000
										CHANNELS 3 Xrotation Yrotation Zrotation
										JOINT mixamorig:RightHandRing3
										{
											OFFSET -5.900024 0.000000 0.000000
											CHANNELS 3 Xrotation Yrotation Zrotation
											JOINT mixamorig:RightHandRing4
											{
												OFFSET -6.518356 0.000000 0.000000
												CHANNELS 3 Xrotation Yrotation Zrotation
												End Site
												{
													OFFSET 1.636398 6.232697 0.982186
												}
											}
										}
									}
								}
								JOINT mixamorig:RightHandPinky1
								{
									OFFSET -20.411011 -0.303314 -8.561701
									CHANNELS 3 Xrotation Yrotation Zrotation
									JOINT mixamorig:RightHandPinky2
									{
										OFFSET -6.907349 0.000000 0.000000
										CHANNELS 3 Xrotation Yrotation Zrotation
										JOINT mixamorig:RightHandPinky3
										{
											OFFSET -4.623840 0.000000 0.000000
											CHANNELS 3 Xrotation Yrotation Zrotation
											JOINT mixamorig:RightHandPinky4
											{
												OFFSET -5.218353 0.000000 0.000000
												CHANNELS 3 Xrotation Yrotation Zrotation
												End Site
												{
													OFFSET 0.602097 5.118835 0.816273
												}
											}
										}
									}
								}
							}
						}
					}
				}
			}
		}
	}
	JOINT mixamorig:LeftUpLeg
	{
		OFFSET 18.168400 -13.561905 -0.039000
		CHANNELS 3 Xrotation Yrotation Zrotation
		JOINT mixamorig:LeftLeg
		{
			OFFSET 0.577358 -80.825211 -3.695000
			CHANNELS 3 Xrotation Yrotation Zrotation
			JOINT mixamorig:LeftFoot
			{
				OFFSET -0.577356 -83.370262 -6.520700
				CHANNELS 3 Xrotation Yrotation Zrotation
				JOINT mixamorig:LeftToeBase
				{
					OFFSET 0.750401 -20.798306 25.135401
					CHANNELS 3 Xrotation Yrotation Zrotation
					JOINT mixamorig:LeftToe_End
					{
						OFFSET -0.000500 0.001200 19.917799
						CHANNELS 3 Xrotation Yrotation Zrotation
						End Site
						{
							OFFSET 0.000000 19.917805 0.000000
						}
					}
				}
			}
		}
	}
	JOINT mixamorig:RightUpLeg
	{
		OFFSET -18.162500 -13.585098 -0.041000
		CHANNELS 3 Xrotation Yrotation Zrotation
		JOINT mixamorig:RightLeg
		{
			OFFSET -0.595024 -80.945297 -3.631900
			CHANNELS 3 Xrotation Yrotation Zrotation
			JOINT mixamorig:RightFoot
			{
				OFFSET 0.595024 -83.218193 -6.561200
				CHANNELS 3 Xrotation Yrotation Zrotation
				JOINT mixamorig:RightToeBase
				{
					OFFSET -0.753601 -20.807106 25.115000
					CHANNELS 3 Xrotation Yrotation Zrotation
					JOINT mixamorig:RightToe_End
					{
						OFFSET 0.000299 0.001700 19.918200
						CHANNELS 3 Xrotation Yrotation Zrotation
						End Site
						{
							OFFSET 0.000000 19.918203 0.000000
						}
					}
				}
			}
		}
	}
}
MOTION
Frames: 4
Frame Time: 0.033333
112.028206 176.096298 -25.896912 22.939438 -17.877829 3.039305 20.777181 11.181274 -14.391555 -1.801806 2.159316 -2.886329 -1.760718 2.024520 -3.008260 -9.066062 -1.443663 -1.433579 -18.574699 -8.822289 -1.579963 0.000001 -0.000000 -0.000001 0.000001 -0.000000 -0.000001 0.000001 -0.000000 -0.000001 0.020985 1.200268 4.271811 7.193799 32.138472 -47.059413 -0.000007 -71.914693 -0.000011 1.762009 -2.847640 25.046987 0.277088 -8.942590 1.292291 1.442667 4.222179 -37.715256 0.743193 3.116569 -26.819223 0.000002 0.000000 -0.000000 1.714744 8.968604 7.327190 1.419676 0.379082 -1.002827 -2.101049 -1.061065 2.973641 0.000001 -0.000000 -0.000000 2.757128 -10.798718 15.140460 3.114392 5.762794 -56.747602 1.427262 4.202241 -37.505508 -0.000000 -0.000000 0.000001 -1.908051 -6.418360 -15.190141 0.321424 2.083060 -17.541375 0.123890 1.302886 -10.863120 -0.000001 0.000001 0.000003 0.460587 2.597608 -28.272004 -0.018072 -4.052347 -0.526958 0.002760 -0.195372 1.619131 -0.000002 0.000001 0.000002 -0.320847 -1.827426 -9.973464 -39.584105 31.382465 10.223034 0.000000 54.156836 0.000000 -7.652978 28.586263 -9.682319 0.005906 -0.415888 6.274331 0.570754 -2.763560 23.334042 0.306296 -0.859548 7.338150 0.000001 0.000002 -0.000002 -5.362542 -8.029967 -16.278439 1.652527 0.398652 1.033319 -5.951906 8.672189 -2.907876 0.000003 -0.000004 -0.000002 0.001989 1.453577 0.079935 1.220959 -3.940530 34.418932 0.106678 -1.215821 10.029099 -0.000000 0.000002 -0.000003 0.160912 -1.499008 14.167166 0.129046 -1.336062 11.033247 0.049801 -0.236184 1.950232 -0.000000 -0.000000 0.000002 0.635372 -2.942178 21.176230 -0.000002 -0.000003 0.000003 0.005018 0.264725 -2.172824 -0.000002 -0.000003 -0.000002 -71.960722 1.234991 17.911836 48.221480 4.850207 -10.241113 2.377264 25.426272 4.952312 -6.507211 -0.000002 0.000004 -0.000000 -0.000001 0.000000 8.439890 -6.301957 3.659299 19.953539 -6.294717 0.713465 23.414332 4.798951 29.671066 -13.096484 0.691839 -4.858463 -0.000001 0.000002 -0.000004 
115.097435 176.272522 -30.674713 23.859056 -19.452954 5.071988 18.803448 13.106700 -15.194826 -1.253362 2.379537 -3.345050 -1.197101 2.252767 -3.454201 -8.914183 -1.596522 -1.387653 -17.528939 -9.560452 -1.454747 -0.000000 0.000000 0.000001 -0.000000 0.000000 0.000001 -0.000000 0.000000 0.000001 -0.091073 2.056919 4.418425 11.435828 31.855186 -51.257223 -0.000001 -70.888860 -0.000004 2.012440 -2.694379 24.208646 0.377842 -9.333263 1.834503 1.437550 4.215569 -37.645711 0.748660 3.127350 -26.919568 0.000001 0.000000 0.000000 2.035492 9.160149 6.855683 1.385334 0.344826 -1.003592 -2.382895 -1.568790 3.027267 -0.000001 -0.000001 -0.000001 2.998847 -11.147736 15.958402 3.113432 5.762177 -56.738057 1.446908 4.227632 -37.772821 -0.000002 -0.000000 -0.000001 -1.966865 -6.808897 -14.944024 0.318024 2.072298 -17.447744 0.121468 1.290204 -10.756003 -0.000002 0.000000 -0.000001 0.307687 2.310509 -28.219610 -0.018109 -4.056673 -0.491022 0.003772 -0.228498 1.893738 0.000000 0.000000 0.000005 -0.540056 -2.698694 -11.153855 -42.222068 35.663013 13.765960 -0.000005 58.052599 0.000005 -6.250600 31.940010 -9.188786 0.119155 -1.297838 9.129157 0.449292 -2.463291 20.670768 0.342742 -0.517517 4.459862 -0.000001 0.000003 -0.000002 -2.067210 -10.767116 -13.063302 1.653488 0.418729 0.958054 -5.819252 8.469896 -2.841571 0.000000 -0.000000 -0.000000 -0.061491 0.638151 4.064128 0.944659 -3.504280 30.165093 0.037330 -0.720989 5.927124 -0.000001 0.000000 -0.000000 0.379177 -2.306892 15.811278 0.103500 -1.197658 9.877789 0.138054 -0.094195 0.788588 -0.000002 0.000002 -0.000000 0.843820 -3.445201 21.909894 -0.000001 0.000003 0.000136 0.004007 0.236644 -1.942217 -0.000002 -0.000003 0.000001 -71.868391 1.120370 16.427841 44.418295 4.492974 -10.254879 5.093449 28.190136 5.385774 -6.604138 -0.000001 0.000000 -0.000000 -0.000001 0.000000 13.679675 -6.101722 5.647956 9.420999 -3.140339 1.783457 30.756605 6.575139 28.839630 -12.023066 0.477553 -5.433451 -0.000001 0.000003 -0.000002 
118.980820 175.682953 -35.567284 24.263878 -20.829746 7.016340 17.748906 14.329361 -15.688818 -0.870334 2.528332 -3.866153 -0.796355 2.401396 -3.965022 -8.583417 -1.725902 -1.357769 -16.781182 -10.163039 -1.401660 -0.000000 -0.000000 -0.000001 -0.000000 -0.000000 -0.000001 -0.000000 -0.000000 -0.000001 -0.227425 3.095855 4.495023 15.557436 31.180124 -55.069674 0.000013 -70.313642 0.000004 3.079084 -2.526887 23.462598 0.427016 -9.006079 2.269761 1.446761 4.227460 -37.770912 0.742204 3.114592 -26.800805 -0.000003 -0.000000 -0.000000 2.392029 9.447615 6.428764 1.295484 0.081832 -1.016780 -2.781609 -2.283265 3.114106 0.000003 -0.000000 -0.000002 2.926351 -10.641325 16.453241 3.135446 5.776475 -56.957029 1.434291 4.211356 -37.601281 -0.000002 -0.000001 -0.000001 -1.887436 -6.708285 -14.587334 0.319981 2.078524 -17.501772 0.119581 1.280227 -10.671861 0.000001 0.000000 0.000004 0.296234 2.277118 -27.920360 -0.018112 -4.056666 -0.491015 0.004014 -0.235589 1.952591 0.000001 0.000000 0.000005 -0.704450 -3.279869 -12.037468 -45.386296 39.055647 18.003337 0.000004 62.980696 0.000002 -2.870160 32.612569 -9.177378 0.078856 -1.043809 7.919379 0.464754 -2.503832 21.027550 0.332737 -0.523742 4.506135 0.000001 0.000002 -0.000002 -0.183059 -10.722535 -10.172116 1.784353 -0.138433 1.191645 -5.017037 6.920448 -2.768877 -0.000001 -0.000005 -0.000000 -0.040377 0.925524 2.294763 0.984355 -3.571573 30.808439 0.037069 -0.718501 5.906519 -0.000002 -0.000003 -0.000002 0.331589 -2.148925 15.214935 0.106751 -1.216183 10.032234 0.134531 -0.100914 0.844375 -0.000000 0.000004 0.000001 0.815886 -3.380298 21.798634 0.000003 0.000005 0.000058 0.003747 0.228772 -1.877672 -0.000001 0.000002 -0.000002 -71.895070 1.001135 14.592499 41.527455 4.339954 -9.853384 7.723034 29.689313 5.299223 -6.924675 0.000013 0.000002 -0.000000 -0.000000 -0.000001 17.291418 -5.514834 6.783367 1.328745 -1.842765 2.414940 36.222829 6.877166 25.730776 -21.504407 1.428406 -9.099308 -0.000004 0.000001 -0.000001 
122.340759 174.706131 -41.149673 24.045867 -21.794644 8.175766 17.607111 14.901424 -15.220498 -0.726140 2.621754 -4.413900 -0.631055 2.483102 -4.510557 -8.063739 -1.805885 -1.431200 -16.414948 -10.610390 -1.467372 -0.000001 0.000000 -0.000000 -0.000001 0.000000 -0.000000 -0.000001 0.000000 -0.000000 -0.325506 3.956616 4.341506 19.482158 30.338375 -58.260462 0.000026 -70.246324 0.000009 4.292522 -2.437992 23.216383 0.384739 -8.358837 2.226921 1.455438 4.238604 -37.888429 0.722028 3.074391 -26.427110 -0.000002 0.000000 -0.000001 2.668127 9.713398 6.154242 1.217443 -0.168267 -1.032257 -3.122636 -2.894851 3.194219 0.000001 -0.000001 0.000003 2.660385 -9.874192 16.269797 3.149556 5.785586 -57.097096 1.389196 4.152303 -36.982978 0.000002 0.000000 0.000000 -1.762285 -6.243305 -14.491034 0.323255 2.088863 -17.591789 0.117275 1.267921 -10.568085 0.000000 0.000001 -0.000003 0.430381 2.525760 -27.750324 -0.018099 -4.055272 -0.502642 0.003564 -0.222017 1.840049 0.000000 0.000000 -0.000000 -0.753623 -3.433400 -12.360522 -48.346504 41.774414 21.814904 -0.000008 68.569731 0.000010 1.129468 30.649989 -9.169777 -0.025262 0.310220 3.292062 0.601451 -2.833587 23.962773 0.277579 -0.823458 7.003519 0.000001 -0.000000 0.000001 -0.465541 -8.093483 -8.230287 3.348263 -4.300793 0.877031 -3.694886 4.326771 -2.718035 0.000000 -0.000000 0.000001 0.155961 2.260800 -4.264803 1.305467 -4.060827 35.630191 0.092300 -1.131490 9.326903 -0.000000 0.000003 0.000001 0.060860 -1.034836 12.668853 0.135357 -1.368022 11.300811 0.048988 -0.229072 1.891581 0.000000 0.000003 -0.000003 0.558364 -2.747684 20.845008 -0.000002 0.000003 0.000006 0.004290 0.244728 -2.008581 -0.000002 0.000002 0.000001 -71.875822 0.785354 13.309629 38.993027 4.012514 -9.419821 10.214403 29.944096 4.653937 -7.455746 -0.000001 -0.000000 -0.000001 0.000002 0.000000 17.709444 -4.930904 7.872448 -0.003216 -2.951135 2.595972 35.368342 5.251379 20.126576 -37.408181 4.069303 -15.295063 -0.000001 -0.000000 0.000000 
